<?xml version="1.0" ?><!DOCTYPE svg  PUBLIC '-//W3C//DTD SVG 1.1//EN'  'http://www.w3.org/Graphics/SVG/1.1/DTD/svg11.dtd'><svg height="512px" style="enable-background:new 0 0 512 512;" version="1.1" viewBox="0 0 512 512" width="512px" xml:space="preserve" xmlns="http://www.w3.org/2000/svg" xmlns:xlink="http://www.w3.org/1999/xlink"><g id="_x38_7-diaspora"><g><path d="M251.685,354.113c-1.394,0-87.629,119.395-88.327,119.395s-86.236-60.247-86.533-60.941    c-0.3-0.798,86.235-125.172,86.235-126.865c0-2.19-129.055-43.816-137.021-46.902c-1.295-0.5,31.269-101.374,31.566-101.672    c0.598-0.696,143.793,46.802,144.889,46.802c0.399,0,0.896-0.598,0.996-1.294c0.398-1.992,0.996-147.976,1.693-148.972    c0.797-1.194,104.061-0.696,104.658-0.299c1.492,0.997,3.484,155.445,6.074,155.445c1.395,0,138.119-46.802,138.713-46.106    c0.797,0.897,31.768,101.771,31.369,102.17c-0.896,0.896-139.611,46.902-140.008,48.596    c-0.299,1.394,82.451,121.586,82.152,122.384c-0.199,0.695-85.141,63.232-85.936,63.232    C341.207,478.885,253.578,354.113,251.685,354.113L251.685,354.113z"/></g></g><g id="Layer_1"/></svg>